<svg xmlns="http://www.w3.org/2000/svg" width="118.19" height="6" viewBox="0 0 118.19 6">
  <metadata><?xpacket begin="﻿" id="W5M0MpCehiHzreSzNTczkc9d"?>
<x:xmpmeta xmlns:x="adobe:ns:meta/" x:xmptk="Adobe XMP Core 5.6-c142 79.160924, 2017/07/13-01:06:39        ">
   <rdf:RDF xmlns:rdf="http://www.w3.org/1999/02/22-rdf-syntax-ns#">
      <rdf:Description rdf:about=""/>
   </rdf:RDF>
</x:xmpmeta>
                                                                                                    
                                                                                                    
                                                                                                    
                                                                                                    
                                                                                                    
                                                                                                    
                                                                                                    
                                                                                                    
                                                                                                    
                                                                                                    
                                                                                                    
                                                                                                    
                                                                                                    
                                                                                                    
                                                                                                    
                                                                                                    
                                                                                                    
                                                                                                    
                                                                                                    
                                                                                                    
                           
<?xpacket end="w"?></metadata>
<defs>
    <style>
      .cls-1 {
        fill: #c45f1c;
        fill-rule: evenodd;
      }
    </style>
  </defs>
  <path id="Фигура_1_копия_9" data-name="Фигура 1 копия 9" class="cls-1" d="M1635.5,1557.47l-0.49-.81,8.45-4.66,0.49,0.81Zm15.2,0.52,0.47-.82-8.27-4.76-0.48.82Zm0.41-.52-0.49-.81,8.45-4.66,0.49,0.81Zm15.19,0.52,0.48-.82-8.28-4.76-0.47.82Zm0.41-.52-0.48-.81,8.44-4.66,0.49,0.81Zm15.2,0.52,0.48-.82-8.28-4.76-0.48.82Zm0.41-.52-0.49-.81,8.45-4.66,0.49,0.81Zm15.2,0.52,0.47-.82-8.27-4.76-0.48.82Zm0.41-.52-0.49-.81,8.45-4.66,0.49,0.81Zm15.19,0.52,0.48-.82-8.27-4.76-0.48.82Zm0.42-.52-0.49-.81,8.45-4.66,0.48,0.81Zm15.19,0.52,0.48-.82-8.28-4.76-0.48.82Zm0.41-.52-0.49-.81,8.45-4.66,0.49,0.81Zm15.2,0.52,0.47-.82-8.27-4.76-0.48.82Zm0.41-.52-0.49-.81,8.45-4.66,0.49,0.81Zm7.4-5.06-0.48.82" transform="translate(-1635 -1552)"/>
</svg>
